<?xml version="1.0" encoding="utf-8"?>
<!-- Generator: Adobe Illustrator 24.2.3, SVG Export Plug-In . SVG Version: 6.00 Build 0)  -->
<svg version="1.1" id="Warstwa_1" xmlns="http://www.w3.org/2000/svg" xmlns:xlink="http://www.w3.org/1999/xlink" x="0px" y="0px"
	 viewBox="0 0 91 64" style="enable-background:new 0 0 91 64;" xml:space="preserve">
<style type="text/css">
	.st0{fill:none;stroke:#62E0D9;stroke-width:1.405;stroke-linecap:round;stroke-linejoin:round;}
	.st1{fill-rule:evenodd;clip-rule:evenodd;fill:#62E0D9;}
	.st2{fill:none;stroke:#FFFFFF;stroke-width:0.803;stroke-linejoin:round;}
	.st3{fill:none;stroke:#FFFFFF;stroke-width:0.803;stroke-linecap:round;stroke-linejoin:round;}
	.st4{fill:none;stroke:#FFFFFF;stroke-width:0.65;stroke-linecap:round;stroke-linejoin:round;}
	.st5{display:none;}
	.st6{display:inline;}
	.st7{fill-rule:evenodd;clip-rule:evenodd;fill:#181F2B;stroke:#62E0D9;stroke-width:1.641;}
	.st8{fill-rule:evenodd;clip-rule:evenodd;fill:#FFFFFF;stroke:#62E0D9;stroke-width:1.458;}
	.st9{fill:none;stroke:#62E0D9;stroke-width:1.01;}
	.st10{fill-rule:evenodd;clip-rule:evenodd;fill:#FFFFFF;}
	.st11{fill:none;stroke:#62E0D9;stroke-width:3.064;}
	.st12{fill:none;stroke:#62E0D9;stroke-width:1.3;stroke-linecap:round;stroke-linejoin:round;}
	.st13{fill:none;stroke:#62E0D9;stroke-width:1.3;stroke-linejoin:round;}
</style>
<g>
	<path class="st0" d="M85.6,59c2.4,0,4.4-1.9,4.4-4.1V9.2c0-1.5-1.3-2.8-2.9-2.8L85.6,59L85.6,59z M15,12v40c0,3.8,3.1,6.9,6.9,6.9
		h63.7c-2.3,0-4.1-1.9-4.2-4.1c0,0,0,0,0,0V3.8c0-1.5-1.2-2.8-2.8-2.8H62.1l-5.5,8.3H17.8C16.2,9.3,15,10.5,15,12z"/>
	<path class="st1" d="M41.3,27.6v3.2c0,1.1,0.8,1.9,1.9,1.9h3.1 M48.8,32.7v-0.2c0-0.7-0.3-1.3-0.7-1.8l-4.8-4.9
		c-0.5-0.5-1.1-0.7-1.8-0.8h-14c-1.4,0-2.5,1.1-2.5,2.6v26.9c0,1.4,1.1,2.6,2.5,2.6h18.8c1.4,0,2.5-1.1,2.5-2.6v-9"/>
	<path class="st2" d="M33.8,49.3v3.8h3.8L49.4,41l-3.8-3.8L33.8,49.3L33.8,49.3z M49.4,41l1.3-1.4c0.7-0.8,0.7-2,0-2.7l-1.1-1.1
		c-0.7-0.7-1.9-0.8-2.6,0c0,0,0,0,0,0l-1.3,1.4L49.4,41z"/>
	<path class="st3" d="M30,37.8h12.5 M30,41.6h11.3 M30,45.5h7.5"/>
	<g>
		<path class="st1" d="M32.9,60.5c0,2-1.6,3.6-3.6,3.6H4.1c-2,0-3.6-1.6-3.6-3.6V42.6c0-2,1.6-3.6,3.6-3.6h25.2c2,0,3.6,1.6,3.6,3.6
			V60.5z M11.3,45.6c0,1.6-1.3,3-3,3c-1.6,0-3-1.3-3-3c0-1.6,1.3-3,3-3c0,0,0,0,0,0C10,42.6,11.3,43.9,11.3,45.6
			C11.3,45.6,11.3,45.6,11.3,45.6z"/>
		<path class="st4" d="M27.3,59.7l-7-7.5l-2.9,3.1L13.2,51L5,59.7"/>
	</g>
</g>
<g class="st5">
	<g class="st6">
		<path class="st1" d="M13.4,44.4h59.3v-6.7H13.4C13.4,37.7,13.4,44.4,13.4,44.4z M54.4,54.3h3.3v2.9H28.3v-2.9h3.3c0.5,0,1-0.4,1-1
			v-7h20.8v7C53.4,53.9,53.9,54.3,54.4,54.3z M13.4,35.7h59.3V2.3H13.4V35.7L13.4,35.7z M12.4,0.3c-0.5,0-1,0.4-1,1v44.1
			c0,0.5,0.4,1,1,1h18.2v6h-3.3c-0.5,0-1,0.4-1,1v4.9c0,0.5,0.4,1,1,1h31.3c0.5,0,1-0.4,1-1v-4.9c0-0.5-0.4-1-1-1h-3.3v-6h18.2
			c0.5,0,1-0.4,1-1V1.3c0-0.5-0.4-1-1-1L12.4,0.3L12.4,0.3z"/>
		<path class="st1" d="M41.7,39.7c-0.5,0-1,0.4-1,1c0,0.5,0.4,1,1,1c0.5,0,1-0.4,1-1C42.7,40.2,42.2,39.7,41.7,39.7"/>
		<g transform="translate(55.377 23.07)">
			<path class="st7" d="M4.8-3.4h17.2c1.1,0,2.1,0.9,2.1,2.1v39.9c0,1.1-0.9,2.1-2.1,2.1H4.8c-1.1,0-2.1-0.9-2.1-2.1V-1.3
				C2.8-2.4,3.7-3.4,4.8-3.4z"/>
			<path class="st8" d="M2.7,1.5h21.5v0.8H2.7V1.5z M2.7,33.1h21.5v0.8H2.7V33.1z"/>
			<ellipse class="st9" cx="13" cy="36.4" rx="1" ry="1"/>
		</g>
		<g>
			<path class="st1" d="M49.2,13.1H49l-4.4,1.7l-4.9-1.7l-4.6,1.6c-0.2,0.1-0.3,0.2-0.3,0.4v12.4c0,0.2,0.2,0.4,0.4,0.4h0.2l4.4-1.7
				l4.9,1.7l4.6-1.6c0.2-0.1,0.3-0.2,0.3-0.4V13.5C49.6,13.3,49.4,13.1,49.2,13.1z M44.6,25.4l-4.9-1.7v-9.4l4.9,1.7L44.6,25.4
				L44.6,25.4z"/>
			<path class="st10" d="M36.7,13.1c-1.1,0-2,0.8-2,1.7c0,1.3,2,3.2,2,3.2s2-1.9,2-3.2C38.7,13.9,37.8,13.1,36.7,13.1L36.7,13.1z
				 M36.7,15.6c-0.4,0-0.8-0.3-0.8-0.7c0-0.4,0.3-0.7,0.8-0.7c0.4,0,0.8,0.3,0.8,0.7C37.5,15.3,37.2,15.6,36.7,15.6z"/>
		</g>
	</g>
</g>
<g class="st5">
	<g class="st6">
		<path class="st11" d="M51.9,26l-8.7,8.8l-6.4-6.5l-3.2,3.2l9.6,9.7l14.6-14.9l-3.2-3.2L51.9,26z"/>
		<path class="st11" d="M61.2,7.8c-3.8,0-7.5-0.8-11-2.5c-1.6-0.8-3.3-1.8-4.8-3c-1.4,1.3-3.1,2.3-4.8,3c-3.4,1.7-7.2,2.5-11,2.5
			h-7.5v28.7c0,5,2,9.9,5.5,13.4C33,55,45.5,61.7,45.5,61.7S58,55,63.2,49.9c3.5-3.5,5.5-8.3,5.5-13.4V7.8
			C68.7,7.8,61.2,7.8,61.2,7.8z"/>
		<path class="st11" d="M62.7,18.2v18.6c0,3.4-1.3,6.6-3.7,8.9c-3.3,3.2-10.7,7.6-13.5,9.2c-2.8-1.6-10.2-6-13.5-9.2
			c-2.3-2.3-3.7-5.6-3.7-8.9V14.2h1.4c4.7,0,9.4-1.1,13.6-3.1c0.7-0.4,1.4-0.7,2.2-1.1c0.7,0.4,1.4,0.8,2.2,1.1
			c4.1,2,8.8,3.1,13.6,3.1h1.4V18.2z"/>
	</g>
</g>
<g class="st5">
	<g class="st6">
		<path class="st12" d="M37.4,10.5v1.8C37.4,12.3,37.4,10.5,37.4,10.5z M37.4,46.7v1.8V46.7z M55.5,30.4h-1.8H55.5z M19.3,30.4h-1.8
			H19.3L19.3,30.4z M36.5,37.6c-0.7,0-1.4-0.3-1.9-0.8L22.9,25.2l3.8-3.8l9.7,9.7L60.8,6.8l3.8,3.8L38.4,36.8
			C37.9,37.4,37.2,37.6,36.5,37.6L36.5,37.6z M57.1,10.5c-5.1-5.6-12.5-9-20.7-9C21,1.5,8.4,14,8.4,29.5s12.6,28,28.1,28
			s28.1-12.6,28.1-28c0-5.4-1.5-10.4-4.1-14.6C60.4,14.9,57.1,10.5,57.1,10.5z M53.3,14.3C49,9.6,42.9,6.9,36.5,6.9
			C24,6.9,13.8,17,13.8,29.5C13.8,42,24,52.1,36.5,52.1S59.1,42,59.1,29.5c0-3.9-1-7.5-2.7-10.7C56.4,18.8,53.3,14.3,53.3,14.3z"/>
		<path class="st13" d="M56.5,36.5c0,2.2-1.8,4-4,4c-2.2,0-4-1.8-4-4c0-2.2,1.8-4,4-4C54.7,32.5,56.5,34.3,56.5,36.5
			C56.5,36.5,56.5,36.5,56.5,36.5z"/>
		<path class="st12" d="M52.5,40.5c-1.7,0-3.2,0.5-4.3,1c-1,0.5-1.7,1.6-1.7,2.7v6.3c0,1.1,0.9,2,2,2v8c0,1.1,0.9,2,2,2h0h4
			c1.1,0,2-0.9,2-2c0,0,0,0,0,0v-8c1.1,0,2-0.9,2-2v-6.3c0-1.2-0.7-2.2-1.7-2.7C55.7,41,54.2,40.5,52.5,40.5L52.5,40.5z"/>
		<path class="st13" d="M68.6,36.5c0,2.2-1.8,4-4,4c-2.2,0-4-1.8-4-4c0,0,0,0,0,0c0-2.2,1.8-4,4-4C66.8,32.5,68.6,34.3,68.6,36.5
			C68.6,36.5,68.6,36.5,68.6,36.5L68.6,36.5z"/>
		<path class="st12" d="M64.6,40.5c-1.7,0-3.2,0.5-4.3,1c-1,0.5-1.7,1.6-1.7,2.7v6.3c0,1.1,0.9,2,2,2l0,0v8c0,1.1,0.9,2,2,2h4
			c1.1,0,2-0.9,2-2v-8c1.1,0,2-0.9,2-2v0v-6.3c0-1.2-0.7-2.2-1.7-2.7C67.8,41,66.2,40.5,64.6,40.5L64.6,40.5z"/>
		<path class="st13" d="M80.6,36.5c0,2.2-1.8,4-4,4c-2.2,0-4-1.8-4-4c0,0,0,0,0,0c0-2.2,1.8-4,4-4C78.8,32.5,80.6,34.3,80.6,36.5
			C80.6,36.5,80.6,36.5,80.6,36.5z"/>
		<path class="st12" d="M76.6,40.5c-1.7,0-3.2,0.5-4.3,1c-1,0.5-1.7,1.6-1.7,2.7v6.3c0,1.1,0.9,2,2,2l0,0v8c0,1.1,0.9,2,2,2h4
			c1.1,0,2-0.9,2-2v-8c1.1,0,2-0.9,2-2v-6.3c0-1.2-0.7-2.2-1.7-2.7C79.8,41,78.3,40.5,76.6,40.5L76.6,40.5z"/>
	</g>
</g>
</svg>
